<svg xmlns="http://www.w3.org/2000/svg" width="256" height="256"><path fill="#1976D2" fill-opacity=".231" fill-rule="evenodd" d="M0 128.011v124.997l128.25-.254 128.25-.254.254-125 .254-125-128.504.258L0 3.015zM.485 128c0 69.025.119 97.262.265 62.75s.146-90.988 0-125.5S.485 58.975.485 128"/><path fill="#1976D2" fill-opacity=".628" fill-rule="evenodd" d="M.667 3.667C.3 4.033 0 60.285 0 128.67v124.338l128.25-.254 128.25-.254.254-124.75L257.008 3H129.171C58.86 3 1.033 3.3.667 3.667M.485 128.5c0 68.75.119 96.728.265 62.172s.146-90.805 0-125S.485 59.75.485 128.5m12.66-64.997L12.79 111h16.903l.653-12.157c.36-6.686.654-25.136.654-41V29h192v10h16.738l.62-3.75c.341-2.062.625-7.237.631-11.5L241 16l-113.75.003-113.75.003zM83 93v48H67.7l.678-12 .678-12H13v13.277c0 10.032.357 13.788 1.462 15.366.804 1.148 5.417 3.783 10.25 5.855s12.509 5.509 17.057 7.635L50.038 163H139v-24.073c0-19.635.247-24.014 1.342-23.75.738.178 10.947 11.011 22.687 24.073L184.374 163h55.936l-1.905-2.211c-3.421-3.969-7.883-8.979-27.637-31.024-21.836-24.37-25.627-29.264-24.211-31.257.519-.73 11.026-12.955 23.349-27.167L232.312 45.5l-27.906-.294-27.906-.295-2.235 2.795c-1.229 1.537-9.24 12.019-17.802 23.294s-15.994 20.65-16.515 20.833c-.58.204-.948-8.83-.948-23.25V45H83zm151.366-39.725c-2.759 2.874-6.22 6.722-7.691 8.552L224 65.153v69.542l6.351 7.402c3.493 4.072 7.368 8.303 8.612 9.403l2.261 2-.729-52.5c-.401-28.875-.815-52.601-.921-52.725-.105-.124-2.449 2.126-5.208 5M13.014 170.25c.007 9.488.285 18.262.616 19.5l.603 2.25H127.01c101.914 0 112.834-.152 113.383-1.582.334-.87.607-6.045.607-11.5V169h-17.89l-.305 4.75-.305 4.75-55-.02c-30.25-.011-73.338-.123-95.75-.25L31 178v-8.477c0-7.79-.19-8.601-2.345-10.014C26.718 158.24 14.365 153 13.31 153c-.17 0-.304 7.762-.296 17.25M140.5 197.93c-6.124 1.04-8.333 2.66-9.083 6.662-.785 4.186.771 7.717 4.063 9.217 4.111 1.873 11.269 2.411 16.672 1.252 3.644-.782 5.43-.814 5.668-.101.191.572 1.209 1.04 2.263 1.04 1.634 0 1.917-.739 1.917-5v-5h-7.5c-6.234 0-7.5.272-7.5 1.613 0 1.224.724 1.508 3 1.174 4.07-.598 3.837.976-.25 1.691-4.905.858-9.186-.675-9.587-3.432-.521-3.578 1.543-4.172 12.087-3.475 5.963.394 9.75.275 9.75-.308 0-2.023-3.862-4.289-8.956-5.255-5.763-1.093-6.544-1.097-12.544-.078m-103.698 5.312c-.266 4.624-.633 5.399-3.115 6.584-4.005 1.913-10.072.406-10.507-2.61-.274-1.907-.938-2.216-4.75-2.216-4.807 0-5.35.886-3.3 5.385 2.775 6.092 21.309 7.582 27.548 2.215 2.205-1.896 2.661-3.212 2.92-8.423l.306-6.177h-8.799zm18.906 3.298L49.916 215h5.074c3.587 0 5.241-.439 5.648-1.5.833-2.169 11.918-2.116 13.137.062.642 1.149 2.114 1.479 5.56 1.25l4.686-.312-5.703-8.25-5.703-8.25-5.558.04-5.557.04zM91 206.5v8.5h8.895l.303-5.224.302-5.225 5.761 5.225c5.327 4.831 6.135 5.224 10.75 5.224H122v-17h-7.89l-.305 4.636-.305 4.636-5.147-4.636c-4.936-4.446-5.397-4.636-11.25-4.636H91zm80.204-1.853c.264 5.927.595 6.87 3.058 8.705 3.688 2.746 18.532 3.003 23.367.404 3.806-2.046 4.371-3.382 4.371-10.338V198h-8.9l-.3 5.717c-.298 5.686-.319 5.721-3.987 6.584-2.598.611-4.519.471-6.5-.475-2.482-1.185-2.849-1.96-3.115-6.584l-.303-5.242h-7.986zM212 206.5v8.5h4c3.333 0 4-.333 4-2 0-1.693.667-2 4.345-2 3.075 0 4.874.585 6.155 2 1.299 1.436 3.08 2 6.31 2 4.444 0 4.478-.025 2.681-2.01-1.765-1.95-1.754-2.081.345-4.315 2.825-3.007 2.798-7.117-.059-9.118-1.73-1.212-5.053-1.557-15-1.557H212zm-146.423-1.321c-1.583 2.245-1.551 2.332.985 2.646 3.451.428 3.959-.243 2.146-2.831l-1.495-2.136zM220 204.5c0 1.322 1.1 1.541 6.509 1.296 8.669-.394 8.838-2.215.241-2.592-5.629-.246-6.75-.031-6.75 1.296M14.714 221.619c-.393.393-.714 4.464-.714 9.048V239h4.5c4.333 0 4.5-.111 4.5-3 0-2.338.443-3 2.009-3 1.104 0 3.872 1.35 6.15 3 3.413 2.472 5.114 3 9.672 3h5.53l-5.306-3.959c-2.919-2.178-5.473-4.125-5.676-4.329s2.094-2.134 5.104-4.291c3.011-2.156 5.484-4.259 5.495-4.671s-2.163-.75-4.834-.75c-4.01 0-5.655.61-9.44 3.5-5.937 4.533-8.471 4.604-8.891.25-.282-2.927-.664-3.28-3.849-3.548-1.944-.163-3.857.024-4.25.417m134.773.227c-.268.268-.487 4.237-.487 8.821V239h9v-9.425l4.784 4.713c2.632 2.591 5.654 4.712 6.716 4.712s4.084-2.121 6.716-4.712l4.784-4.713V239h9.078l-.289-8.75-.289-8.75-5-.293c-4.765-.28-5.21-.08-9.458 4.25-2.452 2.499-4.831 4.543-5.287 4.543s-2.949-2.039-5.541-4.531c-4.364-4.194-5.068-4.515-9.477-4.32-2.619.115-4.982.429-5.25.697M196 229.94V239h8.078l-.289-8.75-.289-8.75-3.75-.31-3.75-.311zm13.714-8.321c-.393.393-.714 4.464-.714 9.048V239h4.5c4.333 0 4.5-.111 4.5-3 0-4.014 2.788-3.995 8.431.058 3.667 2.633 4.982 3.015 9.474 2.75l5.217-.308-5.061-3.769c-2.783-2.074-5.06-4.099-5.059-4.5.001-.402 2.251-2.264 5-4.138 2.749-1.873 4.998-3.705 4.998-4.071s-2.161-.763-4.803-.884c-4.137-.189-5.447.272-9.44 3.322-5.988 4.572-8.523 4.654-8.944.29-.282-2.927-.664-3.28-3.849-3.548-1.944-.163-3.857.024-4.25.417M49 230.5v8.5h13.5c12.833 0 13.5-.099 13.5-2 0-1.852-.667-2-9-2-7.333 0-9-.278-9-1.5 0-1.223 1.675-1.5 9.073-1.5 8.102 0 9.038-.187 8.739-1.75-.283-1.48-1.682-1.795-9.073-2.039C61.932 228.052 58 227.507 58 227s3.932-1.052 8.739-1.211c7.391-.244 8.79-.559 9.073-2.039.305-1.597-.851-1.75-13.239-1.75H49zm32 0v8.5h4.5c3.833 0 4.5-.296 4.5-2 0-1.693.667-2 4.345-2 3.075 0 4.874.585 6.155 2 1.301 1.438 3.08 2 6.329 2h4.52l-2.118-2.254-2.117-2.253 2.443-2.352c3.078-2.962 3.075-4.599-.012-7.686-2.355-2.356-2.982-2.455-15.5-2.455H81zm38.583-.532c-3.071 4.382-5.583 8.207-5.583 8.5 0 1.284 8.842.428 10-.968.85-1.024 3.121-1.5 7.154-1.5 4.33 0 6.063.401 6.484 1.5.403 1.05 2.042 1.5 5.464 1.5h4.888l-5.745-8.456-5.745-8.456-5.667-.044-5.667-.044zM90 228.548c0 1.262 1.139 1.492 6.171 1.25 3.82-.185 6.327-.774 6.583-1.548.302-.915-1.351-1.25-6.171-1.25-5.275 0-6.583.307-6.583 1.548m39.035.386c-1.506 2.814-1.346 3.066 1.944 3.066 2.814 0 2.915-.138 1.839-2.5-1.368-3.002-2.397-3.156-3.783-.566"/><path fill="#1976D2" fill-opacity=".973" fill-rule="evenodd" d="M1 128.5V253h254V4H1zm12-64.961v48.539l8.75-.289 8.75-.289.618-15.5c.339-8.525.677-26.862.75-40.75L32 30h189.742l.669 5.038.668 5.039 8.711-.289 8.71-.288.814-10.862c.448-5.974.574-11.487.281-12.25-.45-1.173-18.214-1.388-114.564-1.388H13zm69.99-19.305L82.597 55c-.211 5.775-.431 27.262-.49 47.75L82 140H69v-24H13.293l-.646 7.651c-1.791 21.184-1.196 22.584 12.063 28.364 5.385 2.347 13.165 5.891 17.29 7.876l7.5 3.609h90l.5-24.296.5-24.295 21.951 24.545L184.402 164h27.799c20.129 0 27.799-.314 27.799-1.139 0-1.036-5.594-7.838-15.101-18.361-29.94-33.141-36.303-40.413-37.626-43-.893-1.746 1.944-5.426 22.352-28.983C222.481 57.676 233 45.189 233 44.767S220.26 44 204.689 44h-28.31l-17.94 23.624L140.5 91.248l-.5-23.374-.5-23.374-28.25-.266c-15.537-.146-28.254-.146-28.26 0m152.899 6.516c-2.495 2.612-6.415 6.951-8.712 9.641L223 65.282v69.436l4.228 4.891c2.325 2.69 6.37 7.141 8.988 9.891l4.759 5 .013-54.25c.006-29.838-.117-54.25-.276-54.25-.158 0-2.328 2.138-4.823 4.75M13 172.552V193h74.836c41.16 0 92.46-.298 114-.662l39.164-.663v-23.75l-9.25.287-9.25.288-.305 4.75-.305 4.75H32.078l-.289-8.75-.289-8.75-6.5-3.219c-3.575-1.771-7.738-3.66-9.25-4.198l-2.75-.979zm23.667 25.115c-.367.366-.667 3.018-.667 5.893 0 5.679-.727 6.44-6.148 6.44-3.728 0-6.852-1.612-6.852-3.535 0-1.07-1.215-1.465-4.5-1.465-4.272 0-4.5.143-4.5 2.826 0 4.954 3.81 7.398 12.392 7.949 9.491.609 14.22-.296 17.22-3.296 2.031-2.031 2.388-3.367 2.388-8.934V197h-4.333c-2.384 0-4.634.3-5 .667m24.166 1.083C57.58 202.603 50 213.925 50 214.929c0 1.753 9.955 1.351 10.638-.429.42-1.094 2.14-1.5 6.347-1.5 3.909 0 6.172.484 7.015 1.5 1.179 1.421 11 2.267 11 .947 0-.304-2.79-4.579-6.2-9.5L72.599 197h-5.144c-3.671 0-5.568.502-6.622 1.75M91 206.5v9.5h9v-11.16l6.25 5.576c5.912 5.273 6.536 5.575 11.538 5.58l5.287.004-.287-9.25-.288-9.25h-9l-.5 4.305-.5 4.305-4.458-4.555c-4.357-4.452-4.601-4.555-10.75-4.555H91zm46.021-8.384c-4.471 1.784-6.021 3.937-6.021 8.365 0 6.428 3.019 8.692 12.391 9.294 4.098.263 8.831-.005 10.527-.597 1.853-.646 3.082-.696 3.082-.126 0 .521 1.415.948 3.145.948h3.145l-.605-7.215c-.661-7.884-2.205-10.039-8.028-11.204-4.447-.889-14.858-.573-17.636.535m33.693-.496c-.393.392-.714 3.359-.714 6.592 0 9.814 4.611 12.525 19.663 11.559 6.438-.413 7.879-.858 10.16-3.14 2.307-2.306 2.66-3.483 2.668-8.894l.009-6.237-4.75-.305-4.75-.305v5.355c0 2.945-.54 5.895-1.2 6.555-1.322 1.322-8.608 1.609-10.49.413-.654-.416-1.329-3.222-1.5-6.235l-.31-5.478-4.036-.297c-2.22-.163-4.358.024-4.75.417m41.027-.028c-.407.408-.741 4.716-.741 9.575V216h5c4.667 0 5-.167 5-2.5 0-2.183.437-2.5 3.448-2.5 2.293 0 4.353.838 6.147 2.5 2.018 1.871 3.793 2.5 7.051 2.5 4.786 0 5.164-.447 2.69-3.182-1.561-1.724-1.529-1.983.5-4.143 2.862-3.047 2.732-5.792-.413-8.751-2.402-2.259-3.441-2.446-15.259-2.749-6.975-.178-13.015.009-13.423.417m-70.3 6.849c-1.551 1.152-1.719 1.805-.838 3.25.827 1.356 2.454 1.839 6.5 1.929 2.968.067 3.907-.076 2.087-.317-4.562-.604-3.993-3.603.821-4.328 3.288-.495 3.345-.566.989-1.237-3.938-1.12-7.451-.862-9.559.703m79.807-.191c.263.792 2.37 1.25 5.746 1.25 3.373 0 5.485-.459 5.752-1.25.306-.91-1.255-1.25-5.746-1.25-4.488 0-6.054.34-5.752 1.25m-155.054.956C64.437 206.963 64.736 208 67 208c2.133 0 2.451-.741 1.179-2.744-.612-.965-1.059-.976-1.985-.05M14 230.5v9.5h4.5c4.333 0 4.5-.111 4.5-3 0-2.472.409-3 2.322-3 1.277 0 4.089 1.337 6.25 2.972 3.282 2.484 4.873 2.977 9.678 3 3.163.015 5.74-.31 5.728-.722-.011-.412-2.528-2.547-5.593-4.743l-5.572-3.992 3.293-2.508c1.81-1.379 4.44-3.505 5.843-4.725l2.551-2.219-6.072-.031c-5.213-.028-6.627.388-10 2.94-2.16 1.635-4.94 2.985-6.178 3-1.84.023-2.25-.519-2.25-2.972 0-2.889-.167-3-4.5-3H14zm34.917-9.088c-.229.227-.273 4.502-.096 9.5l.321 9.088h26.991l-.317-2.75c-.313-2.725-.399-2.755-9.316-3.311l-9-.561 9.25-.189c9.15-.187 9.25-.216 9.25-2.689 0-2.481-.067-2.5-9-2.5-5.333 0-9-.407-9-1s3.667-1 9-1c8.933 0 9-.019 9-2.5V221H62.667c-7.334 0-13.521.185-13.75.412M81 230.5v9.5h4.5c4.133 0 4.5-.204 4.5-2.5 0-2.231.412-2.5 3.826-2.5 2.787 0 4.463.678 6.174 2.5 1.876 1.997 3.32 2.5 7.174 2.5 2.654 0 4.826-.265 4.826-.59s-1.013-1.411-2.25-2.415l-2.25-1.825 2.25-2.4c3.341-3.563 2.952-7.371-1-9.781-2.772-1.69-5.052-1.982-15.5-1.985L81 221zm38.109-.58c-3.36 4.906-6.109 9.181-6.109 9.5 0 1.339 9.806.519 11-.92 1.765-2.127 12.556-2.099 13.375.035.487 1.269 2.369 1.486 10.857 1.25l10.268-.285.5-3.81.5-3.811 3.953 4.061c2.174 2.233 4.859 4.06 5.966 4.06s4.165-2.121 6.797-4.712l4.784-4.713V240h9v-19h-5.792c-5.544 0-5.981.193-10.212 4.504l-4.42 4.503-4.572-4.503c-4.345-4.28-4.857-4.504-10.288-4.504H149v18.414l-6.25-9.172-6.25-9.173-5.641-.034-5.64-.035zm75.891.635v9.555l4.75-.305 4.75-.305.288-9.25.287-9.25H195zm14-.11V240h4.5c4.333 0 4.5-.111 4.5-3 0-2.472.409-3 2.322-3 1.277 0 4.089 1.337 6.25 2.972 3.282 2.484 4.873 2.977 9.678 3 3.162.015 5.736-.31 5.72-.722s-2.477-2.603-5.466-4.867l-5.436-4.118 5.418-3.882c2.98-2.136 5.44-4.221 5.466-4.633s-2.458-.75-5.522-.75c-4.553 0-6.366.548-9.93 3-5.712 3.93-8.763 4.021-8.322.25.307-2.624.105-2.764-4.428-3.055l-4.75-.305zM90 228c0 .565 2.853 1 6.559 1 4.118 0 6.329-.372 5.941-1-.34-.55-3.291-1-6.559-1-3.294 0-5.941.446-5.941 1m39.658.675c-1.369 1.369-.58 3.325 1.342 3.325 1.1 0 2-.395 2-.878 0-1.311-2.585-3.204-3.342-2.447"/></svg>